<svg xmlns="http://www.w3.org/2000/svg" width="1.2in" height="1.2in" viewBox="0 0 84.7 84.7"><path fill="#fff" stroke="#fff" stroke-miterlimit="10" d="M74.2.5a10 10 0 0 1 10 10v63.7a10 10 0 0 1-10 10H10.5a10 10 0 0 1-10-10V10.5a10 10 0 0 1 10-10zm-69.7 10v63.7a6 6 0 0 0 6 6h31.8V52.3h-5.9v-14h5.9v-3.9c0-4.4 1.1-8.3 3.5-11.2a12.9 12.9 0 0 1 10.5-4.8 27.5 27.5 0 0 1 10.8 2.2l1.1.6v11.2h-5.9a9.5 9.5 0 0 0-3.6.5c-.3.3-.4.4-.4 1.5v3.9h10.4l-2.8 14h-7.6v27.9h15.9a6 6 0 0 0 6-6V10.5a6 6 0 0 0-6-6H10.5a5.9 5.9 0 0 0-6 6zm44.4 15.1c-1.7 2.1-2.6 5.1-2.6 8.8v7.9h-6v6h6v31.9h8V48.3h8.3l1.2-6h-9.5v-7.9a5.5 5.5 0 0 1 2.3-4.8c1.5-1 3.4-1.2 5.7-1.2h1.9v-4.6a20.3 20.3 0 0 0-7.9-1.4c-3.5 0-5.8 1.2-7.4 3.2z"/></svg>