<?xml version="1.0"?>
<svg xmlns="http://www.w3.org/2000/svg" xmlns:xlink="http://www.w3.org/1999/xlink" version="1.1" viewBox="0 0 224 224" width="100px" height="100px"><g transform="translate(0.448,0.448) scale(0.996,0.996)"><g fill="none" fill-rule="nonzero" stroke="none" stroke-width="1" stroke-linecap="butt" stroke-linejoin="none" stroke-miterlimit="10" stroke-dasharray="" stroke-dashoffset="0" font-family="none" font-weight="none" font-size="none" text-anchor="none" style="mix-blend-mode: normal"><g fill="#000000" stroke="#000000" stroke-linejoin="round"><path d="M183.68,17.92c12.31783,0 22.4,10.08217 22.4,22.4v143.36c0,12.31783 -10.08217,22.4 -22.4,22.4h-39.61125c-0.4838,0.07996 -0.97745,0.07996 -1.46125,0h-25.41875c-0.4838,0.07996 -0.97745,0.07996 -1.46125,0h-75.4075c-12.31783,0 -22.4,-10.08217 -22.4,-22.4v-143.36c0,-12.31783 10.08217,-22.4 22.4,-22.4zM26.88,40.32v143.36c0,7.47481 5.96519,13.44 13.44,13.44h71.68v-62.72h-13.44v-31.36h13.44v-8.96c0,-9.70667 2.40089,-18.57611 7.7,-25.2c5.29911,-6.62389 13.58,-10.64 23.66,-10.64c14.03426,0 24.325,4.9175 24.325,4.9175l2.555,1.21625v25.22625h-13.44c-4.45392,0 -7.04516,0.6978 -7.88375,1.2425c-0.83858,0.5447 -1.07625,0.73993 -1.07625,3.2375v8.96h23.38875l-6.27375,31.36h-17.115v62.72h35.84c7.47481,0 13.44,-5.96519 13.44,-13.44v-143.36c0,-7.47481 -5.96519,-13.44 -13.44,-13.44h-143.36c-7.47481,0 -13.44,5.96519 -13.44,13.44zM126.7,74.48c-3.66089,4.57611 -5.74,11.38667 -5.74,19.6v17.92h-13.44v13.44h13.44v71.68h17.92v-71.68h18.725l2.68625,-13.44h-21.41125v-17.92c0,-4.20452 1.67474,-8.49397 5.15375,-10.75375c3.47901,-2.25975 7.61057,-2.68625 12.76625,-2.68625h4.48v-10.29875c-2.74463,-1.08737 -8.6058,-3.14125 -17.92,-3.14125c-7.84,0 -12.99911,2.70389 -16.66,7.28z"/></g><path d="M0,224v-224h224v224z" fill="none" stroke="none" stroke-linejoin="miter"/><g fill="#000000" stroke="none" stroke-linejoin="miter"><path d="M40.32,17.92c-12.31783,0 -22.4,10.08217 -22.4,22.4v143.36c0,12.31783 10.08217,22.4 22.4,22.4h75.4075c0.4838,0.07996 0.97745,0.07996 1.46125,0h25.41875c0.4838,0.07996 0.97745,0.07996 1.46125,0h39.61125c12.31783,0 22.4,-10.08217 22.4,-22.4v-143.36c0,-12.31783 -10.08217,-22.4 -22.4,-22.4zM40.32,26.88h143.36c7.47481,0 13.44,5.96519 13.44,13.44v143.36c0,7.47481 -5.96519,13.44 -13.44,13.44h-35.84v-62.72h17.115l6.27375,-31.36h-23.38875v-8.96c0,-2.49756 0.23766,-2.6928 1.07625,-3.2375c0.83859,-0.54471 3.42983,-1.2425 7.88375,-1.2425h13.44v-25.22625l-2.555,-1.21625c0,0 -10.29074,-4.9175 -24.325,-4.9175c-10.08,0 -18.36089,4.01611 -23.66,10.64c-5.29911,6.62389 -7.7,15.49333 -7.7,25.2v8.96h-13.44v31.36h13.44v62.72h-71.68c-7.47481,0 -13.44,-5.96519 -13.44,-13.44v-143.36c0,-7.47481 5.96519,-13.44 13.44,-13.44zM143.36,67.2c9.3142,0 15.17537,2.05388 17.92,3.14125v10.29875h-4.48c-5.15568,0 -9.28724,0.4265 -12.76625,2.68625c-3.47901,2.25978 -5.15375,6.54924 -5.15375,10.75375v17.92h21.41125l-2.68625,13.44h-18.725v71.68h-17.92v-71.68h-13.44v-13.44h13.44v-17.92c0,-8.21333 2.07911,-15.02389 5.74,-19.6c3.66089,-4.57611 8.82,-7.28 16.66,-7.28z"/></g><path d="" fill="none" stroke="none" stroke-linejoin="miter"/></g></g></svg>
