<svg xmlns="http://www.w3.org/2000/svg" width="94.2" height="44.2" viewBox="0 0 94.2 44.2"><path fill="#f15a22" d="M86 16.5c-.4 0-.3.2-.3.4.7 3-.3 5.8-1 8.6-.8-.3-.3-1.2-.8-1.6v-.6c.5-.6.8-3.1.4-3.6s-.6-.4-.7.2a13.8 13.8 0 0 1-1.6 4.7c-.6-.8-.5-1.7-.6-2.9-1.6 4.3-2 8.7-4.7 12.2a36.3 36.3 0 0 0 1.4-10.4 17.6 17.6 0 0 1-2.5 7.4c-.1-1.9.4-3.4.4-4.9-.8 3.4-3.3 5.9-5 8.8-.4.6-.5 1.3-.9 2s-3.2 1.7-4.8 2.6a.3.3 0 0 1-.5-.1c-.1-.3.1-.4.3-.5 3.5-1.7 4.5-5.2 5.9-8.5-.7.2-.8.6-1 1a18.9 18.9 0 0 1-1.9 3 27.1 27.1 0 0 1-7.9 6c-1.2.7-2.7.5-3.8 1.4a2.9 2.9 0 0 1-1.1.6 27 27 0 0 0-4.1.5c-1 .1-1.7.1-1.6-1.2-.6.4-1 1-1.6 1.1a15.2 15.2 0 0 1-8.7-.9c.7-.7 1.7-1 2.4-1.9a2 2 0 0 0-1.5-.1c-1.9.7-3.9.7-5.8 1.4a8.6 8.6 0 0 1-6.3-.2 3.6 3.6 0 0 0-3.2 0c-.5 0-1.3.4-1.3-.7s-.4-.3-.7-.2h-.3c-.2-.9-1.2-.4-1.7-1s-2.5-.7-3-2.2h-.4a3.3 3.3 0 0 1-1.6-.7l-4.5-3.4a1.3 1.3 0 0 1-.2-1.2c.6-.3 1.3-.5 1.7-.2s1.9.4 2.8.1 2.2-.7 3.3-1.2a5.4 5.4 0 0 0 2.3-1.1c-.5-.2-.9.1-1.4.2-2.1.2-4.2 1.1-6.4.3a5.7 5.7 0 0 0-2.6-.3h-.2c-1.6.3-2.3-1.4-3.7-1.7s-2.5-2.1-3.2-3.6L.9 16.9c1.3.1 2.2 1.2 3.5.8l-2.1-1.4A4.4 4.4 0 0 1 0 12.1a26.6 26.6 0 0 1 1.2-7.4c.3-.5 0-1.2.5-1.7s.7.6.9 1.1a43.2 43.2 0 0 0 8.5 13.7c1.1 1.1 2.5 1.9 3.6 3.1a33.6 33.6 0 0 0 6 4.5c4 2.8 8.7 3.9 13.4 4.8a50.6 50.6 0 0 0 5.3.6 63.6 63.6 0 0 0 20.4-1.6 44.8 44.8 0 0 0 16.1-7.5 48.9 48.9 0 0 0 7.8-6.5c.8-.9 1.3-2.1 2.4-2.7a8.8 8.8 0 0 1 1.4 4c.1.5.4.5.6.7a12.9 12.9 0 0 1 1.7 1.6c-1.3-.4-2.6-.6-3.4-1.8.3-.1 1 .1.5-.6s-.6-1.1-1.2-1.5.1 1.1.2 1.6zM59.9 38.2zm-.9-1.7a5.9 5.9 0 0 0 1.8-3.5c-.5 1.2-1.8 2-1.9 3.5h.1zm-17.4 4.4c2.4-.6 7.9-6 8.6-8.3-1.2.1-1.4 1.3-2.1 2a35.1 35.1 0 0 1-5.1 5.1 3.7 3.7 0 0 0-1.4 1.2zm18.8-3.3c1-.6 1.3-1.9 2-2.7s0-.4-.2-.4-.4.1-.5.2a10.8 10.8 0 0 0-1.3 2.9z"/><path fill="#f7941d" d="M86.1 12.5c-1.1.6-1.6 1.8-2.4 2.7a48.9 48.9 0 0 1-7.8 6.5 44.8 44.8 0 0 1-16.1 7.5 63.6 63.6 0 0 1-20.4 1.6 50.6 50.6 0 0 1-5.3-.6c-4.7-.9-9.4-2-13.4-4.8a33.6 33.6 0 0 1-6-4.5c-1.1-1.2-2.5-2-3.6-3.1A43.2 43.2 0 0 1 2.6 4.1C2.4 3.6 2.4 3 1.7 3s1-1 1.7-.5 3 1.6 4.4 2.6A8 8 0 0 0 13 6.6a9.6 9.6 0 0 1 4.8 1c1.1.7 1.4 2.2 1.7 3.6l1.2 6.6a19.7 19.7 0 0 1 .3 2.4c-.4 1.4.2 2.6.3 3.9s.3.4.6.3.2-.3.2-.6-.6-2.2-.7-3.3-.1-4.9.5-7.3a41.2 41.2 0 0 0 .5 7v-2.4c.1-1.8.2-3.6.2-5.3s.1-.6 0-.8 0-1.4 1.2-1.1a2.6 2.6 0 0 1 1.8.9 6.8 6.8 0 0 0 2.9 1.8c1.1.5 1.7 1 1.5 2.3a5.1 5.1 0 0 0 .1 1c.5-1.8 1.5-1 2-.7a13.9 13.9 0 0 0 6.9 1.8c.3 0 .6-.1.7.3s1.3 2.4 1.8 3.7.2.8.7.4a7 7 0 0 0-.4-2.9c-.2-1.5-.1-1.5 1.3-1.4a50.7 50.7 0 0 0 8.7.4l.4-.2a23.4 23.4 0 0 0 8.6-1.6c1.7-.8 3.5-.4 5.3-.3h3.4c-1.9-.3-3.9-.3-5.5-1.7 1.7.2 3.5.5 5.2-.2a84.6 84.6 0 0 1 8.7.5 6.9 6.9 0 0 0 3.5.2 18.6 18.6 0 0 1-3.4-.6c-1.9-.7-4-.8-5.8-1.6a7.8 7.8 0 0 1-2-1.1c.5 0 1.2-.3 1.6 0s2.1.5 3.2.6a19.1 19.1 0 0 0 5.8-.6 4.7 4.7 0 0 1 1.7-.1c-.1.6-.7.3-.9.7 1.5.6 2.5.4 3.3-.6s2.1-1.8 2.8-2.9a3.1 3.1 0 0 0 .5-1.2c.7 0 .6-.6.8-1s.7-2.1 1.5-2.9A11.7 11.7 0 0 1 88.6 9a12.9 12.9 0 0 0-2.2 3zM60.2 20l.2.3a1.4 1.4 0 0 0 1.3 1 4.4 4.4 0 0 0 2.9 2.1l-.9-.9c.9-.1 1.4.7 2.2.7 0-.1-.3-.5.2-.4l.8.2a.9.9 0 0 0 .8.5 1.1 1.1 0 0 0 1.4.4 1.9 1.9 0 0 0-1.4-.4.6.6 0 0 0-.7-.5 25.5 25.5 0 0 0-4.5-3.1 2.1 2.1 0 0 1-.1 1.6l-.7-.3a2.2 2.2 0 0 0-1.3-1l-.2-.2-.3-.2h.3zm-3.5 2.5l.2.2c0 .5.5.7.5 1s-1.9.6-2.7-.2c.1.8 1.2 1.2 1.1 2.3-1-.6-1.2-1.8-2.4-2.4.3 1.4 1.6 2.3 1.4 3.9a23.6 23.6 0 0 0-1.3-2c-.2-.3-.5-.9-.8-.1-.9-.9-1.1-2.3-2.5-3.3.4 1.8 1.7 3 1.7 4.6-.7-.2-.5-1.2-1.2-1.5a.5.5 0 0 0-.3-.5c0-.1.1-.3-.1-.3v.3c.1.2.1.4.3.5s.3 2.6 1.5 3.7v-1.5c.2 0 .5.1.5.3s.7 1.4 1.8 1.3 2.4-.7 3.6-.6 4.1-.8 6.5-1.4c-2.9-1.2-5.2-2.8-7.7-4.1l-.2-.2v-.2h-.1zm-13 6.5l-.2-.3a18.7 18.7 0 0 0-2.2-3.9c.6 1.4 1 2.9 2.1 4l.3.2c.1.2.2.4.5.4s.1-.2.1-.2-.4-.2-.6-.2zm8.5-6.3a.7.7 0 0 0 .4.7c.2 0 .3-.1.2-.2s-.3-.4-.6-.5-.7-1.5-1.4-2 .6 1.6 1.4 2zm-39.6-7.5c-.3.2-.1.6-.6.7s-.7.8-.2 1.3l4.3 3.7c.2.2.5.5.7.1a.5.5 0 0 0-.4-.8.9.9 0 0 1-.9-.7c-.8-1.6-2-2.8-2.9-4.3zm56.3 4.6a7.8 7.8 0 0 0 5.5 1.4c.7 0 1-.6 1.4-1s0-.4-.2-.4a1.8 1.8 0 0 0-1.6.4c-.5.6-.9.4-1.5.4s-2.4-.7-3.6-.8zm-36.8 8.7c-.1-.9 0-2.1-.8-2.3s-.8-1-1.1-1.6 0-.4-.1-.5 0-.5-.4-.3c.4 1.7.2 3.7 2.4 4.7zm-7.8-7.4h-.4c.2 1.5.4 3 .7 4.5s.2.3.4.4.4.4.6.2.4-.5.2-.8-.9-2.9-1.5-4.3zm22.1 3.3a10.3 10.3 0 0 0 2.4 4.9 22.3 22.3 0 0 0-2.4-4.9zM68 21.2v.4a8.2 8.2 0 0 0 4.6.8v-.3zm-25.9 8a6.4 6.4 0 0 0-1.9-3.5c.4 1.3.6 2.6 1.9 3.5zm-7.2-7.1l1.2 5.3h.3a15.6 15.6 0 0 0-1.5-5.3zm-7.6-.2c.5 1.4-.3 3 1.1 4.1-.5-1.3-.2-2.8-1.1-4.1zm48.5-4.8a3.4 3.4 0 0 0 2.7.9c.2 0 .6 0 .6-.3s-.3-.4-.6-.4a5.9 5.9 0 0 0-2.7-.2zm-2.7-2.3c1.8.8 3.8.9 4.3.2-1.4.2-2.8-.3-4.3-.2zm-.3 3.7c1.6.1 2.9 1.4 4.6.6-1.6 0-3-.6-4.6-.6zm-22.5 9.7a2.8 2.8 0 0 0-1.4-2.8zm-5.7-4.5a6.5 6.5 0 0 0 1.4 2.9c-.4-1-.4-2.1-1.4-2.9zm-16.3-1.6c0-1.4-.3-2.8-.2-4.3a10.3 10.3 0 0 0 .2 4.3zm14.1.8a6.4 6.4 0 0 0 1.5 2.5c-.4-.9-.5-2-1.5-2.5zm-2.5 3.6a3.2 3.2 0 0 0 .7 2.7l.3-.2zm24.5-1.8a3.3 3.3 0 0 0-2.3-1.7zm-3.8-1.3c-.8-.5-1-1.2-1.7-1.3s-.2.2-.1.2a2 2 0 0 0 1.8 1.1zm-34 1.2c-.2 1.4-.2 1.4.6 2a7.6 7.6 0 0 0-.6-2zm22.3 6.1v-.2h-3.2v.2z"/><path fill="#f7941d" d="M24.9 41a3.6 3.6 0 0 1 3.2 0 8.6 8.6 0 0 0 6.3.2c1.9-.7 3.9-.7 5.8-1.4a2 2 0 0 1 1.5.1c-.7.9-1.7 1.2-2.4 1.9a15.2 15.2 0 0 0 8.7.9c.6-.1 1-.7 1.6-1.1-.1 1.3.6 1.3 1.6 1.2a27 27 0 0 1 4.1-.5 2.9 2.9 0 0 0 1.1-.6c1.1-.9 2.6-.7 3.8-1.4a27.1 27.1 0 0 0 7.9-6 18.9 18.9 0 0 0 1.9-3c.2-.4.3-.8 1-1-1.4 3.3-2.4 6.8-5.9 8.5-.2.1-.4.2-.3.5a.3.3 0 0 0 .5.1c1.6-.9 3.7-.8 4.8-2.6s.5-1.4.9-2c1.7-2.9 4.2-5.4 5-8.8 0 1.5-.5 3-.4 4.9a17.6 17.6 0 0 0 2.5-7.4 36.3 36.3 0 0 1-1.4 10.4c2.7-3.5 3.1-7.9 4.7-12.2.1 1.2 0 2.1.6 2.9a3.4 3.4 0 0 1-.4 2.5 41.3 41.3 0 0 0-1.5 5c-.2 0-.2-.7-.4-.1s.1 1.4-.3 2-1.5 1.4-2.3 2a28.5 28.5 0 0 1-8.2 4.5 53.8 53.8 0 0 1-11.8 3 42.5 42.5 0 0 1-7.1.6c-1.5-.1-3.1.1-4.7.1a76.8 76.8 0 0 1-18.5-2.3 2.5 2.5 0 0 1-1.9-.9zm49.8-8.2c.2-.2.3-.3.2-.5h-.1c0 .2-.1.3-.1.5l-.3.3c-.8-.1-1 .4-.9 1.2s.9-.6 1-1.2z"/><path fill="#ffcb05" d="M86.4 12a12.9 12.9 0 0 1 2.2-3 11.7 11.7 0 0 0 1.9-5.4c-.8.8-1 2-1.5 2.9s-.1 1-.8 1a7 7 0 0 0 .8-4c-.2-.7.2-1.1.9-1.2s-.1.6.4.7 1.1-.6 1.6-1-.1-.5-.3-.7L93.4.2c.2-.1.4-.3.6-.1a.6.6 0 0 1 .1.7 43.2 43.2 0 0 1-7.2 11.1zM10.9 29.3a5.7 5.7 0 0 1 2.6.3c2.2.8 4.3-.1 6.4-.3.5-.1.9-.4 1.4-.2a5.4 5.4 0 0 1-2.3 1.1c-1.1.5-2.2.8-3.3 1.2s-1.8.7-2.8-.1-1.1-.1-1.7.2-.1-1.5-.3-2.2zm.5 3.4l4.5 3.4a3.3 3.3 0 0 0 1.6.7h.4c.5 1.5 2.2 1.2 3 2.2s1.5.1 1.7 1c-1.5.6-2.7-.4-3.9-1a24.5 24.5 0 0 1-7.5-5.7c-.4-.5-.2-.5.2-.6zm72.5-8.8c.5.4 0 1.3.8 1.6l-.5 2c-.4.5-.1 1.2-.2 1.8s-.4.6-.6.2-.9-1-.5-1.9.4-2.5 1-3.7zm-62.5-3.4c.1 1.1.7 2.2.7 3.3s.1.5-.2.6-.6-.1-.6-.3-.7-2.5-.3-3.9z"/><path fill="#f15a22" d="M84.9 11.6c-.8 1-1.8 1.2-3.3.6.2-.4.8-.1.9-.7a6.5 6.5 0 0 1 2.4.1z"/><path fill="#ffcb05" d="M83.6 19.9c.1-.6.4-.4.7-.2s.1 3-.4 3.6z"/><path fill="#f15a22" d="M91.6 1.3c.2.2.6.4.3.7s-.8 1.1-1.6 1-.4-.4-.4-.7.9-1.1 1.7-1zM52.2 18h-1.7c1-.3 2-.9 3.2-.6-.3.8-1.2.1-1.5.7zm17-3.8c-1.1-.1-2.3.3-3.4-.3 1.1.1 2.3-.5 3.4.3zm-49.1-2.4l-.5-2.9h.4a5.1 5.1 0 0 1 .1 2.9zm38.5 4.9c-.9.2-1.8.8-2.8.3a3.9 3.9 0 0 1 2.8-.3zm-11.4.8c-.8.4-1.6.2-2.8-.3a6 6 0 0 1 2.8.3zM78 14.3a18.6 18.6 0 0 0 3.4.6 6.9 6.9 0 0 1-3.5-.2.6.6 0 0 1 .1-.4zm-16.5 1.2a3.1 3.1 0 0 1 2.3 0 3.1 3.1 0 0 1-2.3 0zM79.4 34c.4-.6.1-1.4.3-2s.2.1.4.1a5.3 5.3 0 0 0 .1 2.5c-.6.2-.6-.3-.8-.6z"/><path fill="#ffcb05" d="M84.2 27.5l.4-.4c.3.5 0 .8-.3 1.1s-.1-.5-.1-.7zm.9.6c-.1-.3-.2-.3-.2-.4s0-.4.2-.4.3.1.2.3z"/><path fill="#f15a22" d="M42.2 22.1c-.5.4-.7.1-.7-.4h.2l.2.2z"/><path fill="#f15a22" d="M41.9 22l-.2-.2c0-.1.1-.2.1-.3z"/><path fill="#f7941d" d="M86.4 17l-.4-.5h-.1c.3 0 .6.1.5.5z"/><path fill="#ffcb05" d="M22.9 40.1c.3-.1.6-.3.7.2a1 1 0 0 1-.7-.2zm18.7.8a3.7 3.7 0 0 1 1.4-1.2 35.1 35.1 0 0 0 5.1-5.1c.7-.7.9-1.9 2.1-2-.7 2.3-6.2 7.7-8.6 8.3zm18.8-3.3a10.8 10.8 0 0 1 1.3-2.9c.1-.1.2-.4.5-.2s.3.2.2.4-1 2.1-2 2.7zm-1.5-1.1c.1-1.5 1.4-2.3 1.9-3.5a5.9 5.9 0 0 1-1.8 3.5zM86.4 17c.1-.4-.2-.5-.5-.5s-.5-.9-.2-1.6.8 1 1.2 1.5-.2.5-.5.6z"/><path fill="#59cae9" d="M59 36.5zm.9 1.7zm0 0z"/><path fill="#ffcb05" d="M52.7 25.2c.3-.8.6-.2.8.1a23.6 23.6 0 0 1 1.3 2c.2-1.6-1.1-2.5-1.4-3.9 1.2.6 1.4 1.8 2.4 2.4.1-1.1-1-1.5-1.1-2.3.8.8 1.7.5 2.7.2s-.5-.5-.5-1c2.5 1.3 4.8 2.9 7.7 4.1-2.4.6-4.3 1.4-6.5 1.4s-2.4.5-3.6.6-1.8.1-1.8-1.3-.3-.3-.5-.3c0-.2.1-.5-.3-.7 0-1.6-1.3-2.8-1.7-4.6 1.4 1 1.6 2.4 2.5 3.3zm.7 1.3v.3h.1v-.2a.5.5 0 0 0-.3-.5c0 .1 0 .3.2.4zm4.5-1.9a.5.5 0 0 1-.1-.3h-.3a.3.3 0 0 1 .1.2zm.3.9l.2.2h.2l-.2-.2zM12.6 15.2c.9 1.5 2.1 2.7 2.9 4.3a.9.9 0 0 0 .9.7.5.5 0 0 1 .4.8c-.2.4-.5.1-.7-.1l-4.3-3.7c-.5-.5-.4-1.1.2-1.3s.3-.5.6-.7z"/><path fill="#f15a22" d="M62.4 21.5a2.1 2.1 0 0 0 .1-1.6A25.5 25.5 0 0 1 67 23h-.1l-.8-.2c-.5-.1-.2.3-.2.4-.8 0-1.3-.8-2.2-.7a1.1 1.1 0 0 0-1.3-1zm6.5-1.7c1.2.1 2.4.6 3.6.8s1 .2 1.5-.4a1.8 1.8 0 0 1 1.6-.4c.2 0 .3.2.2.4s-.7 1-1.4 1a7.8 7.8 0 0 1-5.5-1.4z"/><path fill="#ffcb05" d="M32.1 28.5c-2.2-1-2-3-2.4-4.7.4-.2.4.1.4.3s0 .3.1.5.1 1.3 1.1 1.6.7 1.4.8 2.3zm-7.8-7.4c.6 1.4.3 3.2 1.5 4.4s0 .6-.2.8-.4 0-.6-.2-.4-.3-.4-.4-.5-3-.7-4.5z"/><path fill="#f15a22" d="M46.4 24.4a22.3 22.3 0 0 1 2.4 4.9 10.3 10.3 0 0 1-2.4-4.9zM68 21.2l4.5.9v.3a8.2 8.2 0 0 1-4.6-.8zM50.7 25c.7.3.5 1.3 1.2 1.5 0 .3 0 .6.3.7v1.5c-1.2-1.1-2-2.2-1.5-3.7zm-8.6 4.2c-1.3-.9-1.5-2.2-1.9-3.5a6.4 6.4 0 0 1 1.9 3.5zm-7.2-7.1a15.6 15.6 0 0 1 1.5 5.2h-.3zm-7.6-.2c.9 1.3.6 2.8 1.1 4.1-1.4-1.1-.6-2.7-1.1-4.1zm48.5-4.8a5.9 5.9 0 0 1 2.7.2c.3 0 .6.1.6.4s-.4.3-.6.3a3.4 3.4 0 0 1-2.7-.9zm-2.7-2.3c1.5-.1 2.9.4 4.3.2-.5.7-2.5.6-4.3-.2zm-.3 3.7c1.6 0 3 .6 4.6.6-1.7.8-3-.5-4.6-.6zM43.4 28.8c-1.1-1.1-1.5-2.6-2.1-4a18.7 18.7 0 0 1 2.2 3.9zm6.9-.6l-1.4-2.8a2.8 2.8 0 0 1 1.4 2.8zm-5.7-4.5c1 .8 1 1.9 1.4 2.9a6.5 6.5 0 0 1-1.4-2.9zm19.1-1.2l.9.9a4.4 4.4 0 0 1-2.9-2.1l.7.3c.4.4.7.9 1.3 1z"/><path fill="#fefefe" d="M28.3 22.1a10.3 10.3 0 0 1-.2-4.3c-.1 1.5.2 2.9.2 4.3z"/><path fill="#f15a22" d="M42.4 22.9c1 .5 1.1 1.6 1.5 2.5a6.4 6.4 0 0 1-1.5-2.5zm-2.5 3.6l1 2.5-.3.2a3.2 3.2 0 0 1-.7-2.7zm24.5-1.8L62.1 23a3.3 3.3 0 0 1 2.3 1.7zm-12.2-2c-.8-.4-1-1.2-1.4-2s1.4 1 1.4 2zm8.4.7a2 2 0 0 1-1.8-1.1c-.1 0 0-.2.1-.2s.9.8 1.7 1.3zm-34 1.2a7.6 7.6 0 0 1 .6 2c-.8-.6-.8-.6-.6-2z"/><path fill="#fefefe" d="M48.9 30.7h-3.2v-.2h3.1z"/><path fill="#f15a22" d="M61.7 21.3a1.4 1.4 0 0 1-1.3-1 2.2 2.2 0 0 1 1.3 1zm6 2.2a1.9 1.9 0 0 1 1.4.4 1.1 1.1 0 0 1-1.4-.4zm-15.5-.8c.3.1.5.1.6.5s0 .2-.2.2a.7.7 0 0 1-.4-.7zM43.7 29c.2 0 .5-.1.6.2s0 .2-.1.2-.4-.2-.5-.4zM67 23a.6.6 0 0 1 .7.5.9.9 0 0 1-.8-.5zm-16.3 2c-.2-.1-.2-.3-.3-.5a.5.5 0 0 1 .3.5zm-.3-.5v-.3c.2 0 .1.2.1.3zm6.3-2l-.2-.2h.1v.2zm3.5-2.5h-.3l.3.2zm-16.7 8.7l.2.3-.3-.2zm13.2-6.2l.2.2-.2-.2zm3.5-2.5l.2.2-.2-.3zm-5.5 3.5zM74.5 33c-.1.6-.5.8-1 1.2s.1-1.3.9-1.2z"/><path fill="#ffcb05" d="M74.7 32.7v-.5h.1c.1.2 0 .3-.2.5zm0 .1a.2.2 0 0 0-.2.2h-.1l.3-.3z"/><path fill="#f15a22" d="M57.9 24.6h-.3a.3.3 0 0 0-.1-.2h.3a.5.5 0 0 0 .1.2z"/><path fill="#ffcb05" d="M52.2 27.2c-.3-.1-.3-.4-.3-.7s.3.5.3.7z"/><path fill="#f15a22" d="M58.2 25.5h.2l.2.2h-.2zm-5 .5a.5.5 0 0 1 .3.5h-.1c-.2-.1-.2-.3-.2-.5z"/><path fill="#f15a22" d="M53.5 26.5v.2h-.1a.4.4 0 0 0-.1-.3zm-.3-.5zm-.5-.8zm11-2.7c-.6-.1-.9-.6-1.3-1a1.1 1.1 0 0 1 1.3 1z"/></svg>