<svg xmlns="http://www.w3.org/2000/svg" width="100" height="107.3" viewBox="0 0 100 107.3"><path stroke="#000" stroke-miterlimit="10" stroke-width=".25" d="M34 12.2l1.9 2.8c2.4 3.8 4.7 7.7 9.3 9.3a25.4 25.4 0 0 1-5.8-11c-.2-.6.1-1.3.1-2 2.1 5 5.2 9.1 10.1 11.5-2.4-4-4.8-11.3-4.5-14.1l2.1 3.6a58.5 58.5 0 0 0 2.8 5.5 9.6 9.6 0 0 0 1.8 2.2c.8 1.7 2-.1 3.1.6-2.1-5.1-3-14.1-1.9-17.9.6 2 1.3 4.3 2 6.4 1.5 4.2 2.2 8.9 5.4 12.3a22.3 22.3 0 0 0 2.4 1.9h-.1c-.1.4-.1.8-.2 1.1s1.4.4 1.8.7l9.2 8.7c1.5 1.5 2.9 3.2 5.2 4s5.3 4.8 4.8 8.2c-.1 1.7-2.1 3.9-3.5 4-4.3.3-9.8-3.2-11.7-7.3a30.4 30.4 0 0 0-2.5-4.7c-1-1.4-2.3-2.6-4.2-2.4 1.3 3.1 2.6 6 3.6 9a11.6 11.6 0 0 0 4.2 5.9l2.6 1.6-6 2.1a23 23 0 0 1-.9-3.1c-.5-1.7-1.5-3.5-1.4-5.2.5-4.8-2-7.2-6.7-7.3-1.8-.1-3.4-.8-5.2-1.1l-9.7 6.7c.7-1.2 1.2-2.4 1.8-3.3l-1.8-.8-9.5-5.2h.1c-2.1-3.7-5.1-6.9-6.2-11.5 8 7.5 14.2 9.1 19 8.9-4.9-2.2-9.6-3.6-13.3-7-.9-1.2-2-2.4-2.8-3.6-2-2.8-4-5.5-4.5-9.2 2.6 3.3 4.9 6.5 7.5 9.4s5.6 5.7 9.6 6.6l.4-.7-5.2-3.4-1.4-2.4a23.3 23.3 0 0 1-4.1-13zm38.4 24.7a31.1 31.1 0 0 1 1.5 4.7c.4 2.6 2 4.4 4.5 4.1.9-.2 2.2-1.5 2.2-2.3s0-3.4-2-3.9-2 1-2 2.8c-1.2-2.2-.9-5.3-4.2-5.4zm-3.8-.1a.7.7 0 0 0 .2-.4c-.4-1.7-2-2.7-2.5-4.6s-2-2.7-4-2.8-2.8.4-2.7 1.9 1 1.7 1.8 2.1c2.3 1.4 4.7 2.5 7.2 3.8z"/><path stroke="#000" stroke-miterlimit="10" stroke-width=".25" d="M32.6 34.9l9.5 5.2 1.8.8c-.6.9-1.1 2.1-1.8 3.3l9.6-6.8a32.1 32.1 0 0 0 5.2 1.1c4.7.2 7.2 2.5 6.7 7.3-.1 1.7.9 3.5 1.4 5.3a28.1 28.1 0 0 0 .9 3.1l6-2.2a22.6 22.6 0 0 1-2.6-1.6 12.6 12.6 0 0 1-4.2-5.9c-.8-2.5-2.3-6-3.6-9.1 1.9-.1 3.2 1 4.2 2.5a26.4 26.4 0 0 1 2.5 4.7c1.9 4 7.4 7.5 11.7 7.3 1.4-.1 3.4-2.4 3.6-4 .4-3.4-1.7-7.3-4.9-8.3s-3.7-2.4-5.2-3.9L64.2 25c-.4-.4-1.2-.5-1.8-.8s.1-.7.2-1.1a6.4 6.4 0 0 1 1.8 1c3.2 2.9 6.3 5.9 9.5 8.7a22.7 22.7 0 0 0 5.7 4.2c3.9 1.8 4.3 5.3 4.7 8.6s-2.7 5.4-4.6 5.1a42.7 42.7 0 0 1-5.4-1.3l-1.7-.4-.8-.5-6.2-5.8c1 4.5 3.4 7.3 7.6 8.7v.6c-1.9.9-4 1.4-5.5 2.8s-2.2 3.3-3.7 4.9c.1-.9.2-1.8.4-2.8h-.3l-1 1.7c-1.1-1.9.3-3.4 1-4.7s.4-1.7 0-2.7a29.9 29.9 0 0 1-1.4-6.6c-.3-3.2-1.9-4.7-5.1-4.7s-3.8-.8-5.9-1.3c-1.9 1.2-4.2 2.7-6.3 4.2s-2.9 2.2-4.3 3.3c.4-1.5.9-3.1 1.3-4.8l-1.8-.8c.2 1.9.4 3.8.5 5.6.8-.1 1.8 0 2.4-.5s3.4-3.2 5.5-4.2a10.3 10.3 0 0 1 5.3-.9 39.3 39.3 0 0 1 4.8.6c-.6 3.8-1.6 7.6-.4 11.5a12.3 12.3 0 0 1 .2 2c.2 1.8.4 3.7.5 5.5a10.1 10.1 0 0 1 0 3 10.4 10.4 0 0 0 1.9 7.5 12.3 12.3 0 0 1 2.3 5.4 14.9 14.9 0 0 0 1.8 3.8c-.8 1.2-1.4 2.4-2 3.5h.1c-1.6 1.5-.7 3.1-.3 4.7s.4 1.5.1 1.9c-1.8 2.8-3.9 5.4-5.6 8.2s-3.1 5.9-4.8 9.2l-3.9-5.1-7.5-8.8-.3-1c.2.1.5 0 .6.2l6.7 8 4.3 5.2 4.8-10.1 1.4-2.3 3.3-4.1a1.7 1.7 0 0 0 .3-1c-1.5-3.4.1-6.1 1.8-8.3-.5-1.7-.9-3-1.4-4.4l-.8-.2h.1c.5-1.4-.2-2.5-.9-3.6a34.9 34.9 0 0 1-2.4-5 14.2 14.2 0 0 1-.4-2c-2.4 3-5.1 4.5-9.3 5.5-2.7.6-4.1-.3-4.4-3.1s-.2-4.9-.3-7.3c1.7.3 3 .9 4.3.8 3.2-.3 6.3-.9 9.2-1.3v-6.7c-.3 3.1-3 3.3-4.9 4.4s-4.2 1-6.5.5-3.3-2.6-3.2-5a.5.5 0 0 0-.2-.4c-.7-3 1-4.7 4-3.9l10.2 3.1v-9.6h-1.4c-2.6-.6-5.2-1.1-7.6.9a19.8 19.8 0 0 1-4.4 3.2c-1.9 1-2.8 2.6-3.8 4.3a2.7 2.7 0 0 1-1.2.9 5.4 5.4 0 0 1-1.8 0v-3.9l3.1-.3a9.3 9.3 0 0 1-.3-3.1c.5-2.7 0-3.5-2.9-4.2-1 5-1.9 10.1-3.1 15a30.3 30.3 0 0 0 .6 16.9c1.5 4.5 2.5 8.8-.1 13l4 4.9 2.6 3.1-8.2-7.8c2.3-1.9 3.2-6.3 2.3-9.3s-2-6.7-2.8-9.6l-1 5.9h-.9v-9.8h-.3l-1.9 5.3c-1.3-1.2-1.2-2.2.7-13.1l-2.4 4.7c-.5-5.3 1.7-9.6 3.5-14.4l-4.1 2.1c2-3.9 4.5-7 9.1-7.9-.5 2.7-1 5.1-1.6 7.6l.7-7.4-6.7 5.2.3.5 3.8-1.5-4.9 11.8.7.3 3.1-4.4h.3c-.9 4.1-1.7 8.2-2.6 12.2h.5l3-3.9a24.2 24.2 0 0 1 0-4.7c.5-2.8 1.3-5.5 1.9-8.3-.6 3.9-1.1 7.8-1.7 11.6l.8.2c1.2-6.5 2.5-13 3.8-19.6zm13.2 25.7c-1.5 2.5-.8 4.8-.1 6.9s2 2.4 2.6 2.2a42.9 42.9 0 0 0 7.8-3.7 6.1 6.1 0 0 0 1.9-3.4 1.7 1.7 0 0 0-2.4-1.9c-3.2 1-6.5 1.5-9.8-.1zm3.6-3a55.3 55.3 0 0 0 6.1-2.4c.6-.3 1-1.6 1.1-2.5s-1.2-.7-1.9-1l-1.4-.5-6.6-2.2a1.7 1.7 0 0 0-2.3 1.4c-1.1 3.4.8 7.5 5 7.2zM63.7 37l-.6.5c1.9.7.6 4.1 4 3.9z"/><path d="M20.5 68.9L15.9 63a14.2 14.2 0 0 0-.7-2.2c-1.1-2.1-2.5-4-2.4-6.4h-.1l1-1.5-.5-.6-2.9 1.7-3-4.7-2.7.7a3.6 3.6 0 0 1-1.1-3.7c.4-3.8 3.2-5.3 5.6-7.4a7 7 0 0 1 3-1.7c5.1-.7 8.8 1.5 10.3 5.9a22 22 0 0 1 .9 10.9c-.5 3.1-.1 6.4.2 9.6a69.8 69.8 0 0 0 1.5 7.9l-.6.5zm-2-25.7c-2.5 0-6.1 2.4-6.5 4.6-.1.4.6 1.4 1 1.4 2.1.1 5.4-3.4 5.5-6zm65.8 14l.6-1c.9-1.8 1.9-3.4 2.7-5.2s1.8-4.4 2.6-6.5l3.7-9.6a47.3 47.3 0 0 0 2.6-7.8c.3-1 1.4-2 .1-3.4a8.5 8.5 0 0 0-6.2-3.4L75 18.6l-11-1a6.7 6.7 0 0 1 2.4-.4l12 .5c4.1.1 7-.2 10.5 0 5.8.5 8.7 2.3 10.2 7.3a6.9 6.9 0 0 1-.2 4.5c-.5 1.2-.6 2.3-1 3.4-1.9 4.7-4.1 9.3-5.8 14.1a147.8 147.8 0 0 1-9.9 20.9c-1.1 1.8-1.9 3.7-2.8 5.5l-3.6 3.5-.6-.4 1-2.2 4.1-7.7c1.3-3.1 2.7-6.3 4-9.4z"/><path d="M79.4 73.4c.9-1.8 1.7-3.7 2.8-5.5A147.8 147.8 0 0 0 92.1 47c1.7-4.8 3.9-9.4 5.8-14.1.4-1.1.5-2.2 1-3.4a6.9 6.9 0 0 0 .2-4.5c-1.5-5-4.4-6.8-10.2-7.3-3.5-.2-7 0-10.5 0l-12-.5a6.7 6.7 0 0 0-2.4.4l11 1 15.4 1.7a8.5 8.5 0 0 1 6.2 3.4c1.3 1.4.2 2.4-.1 3.4a79.2 79.2 0 0 1-2.6 7.8c.2-.7.3-1.3.5-2a59.5 59.5 0 0 0 1.7-7.3 4.3 4.3 0 0 0-2.1-3.2c-3.6-1.9-7.6-2.1-11.6-2.5s-10.8-1.1-16.1-1.8a43.4 43.4 0 0 1-5.2-.9v-.8c.5-.1.9-.5 1.5-.5s3.8.4 5.7.4c6.7.2 13.5.2 20.1.5 2.8.2 5.7.7 8 2.7 4.3 3.6 4.2 8.1 2.5 12.6-3.3 8.5-6.7 16.9-10.3 25.1-2.5 5.4-5.6 10.4-8.4 15.5a2.7 2.7 0 0 1-.8.7zm-58.9-4.5l3.9 3.1.6-.5c-.5-2.6-1.2-5.2-1.5-7.9a38.1 38.1 0 0 1-.2-9.6 22 22 0 0 0-.9-10.8c-1.5-4.4-5.2-6.6-10.3-5.9a7 7 0 0 0-3 1.7c-2.4 2.1-5.2 3.6-5.6 7.4a3.6 3.6 0 0 0 1.1 3.7l2.7-.7.4 3.2c-2.5-1.3-1.1 2.1-2.6 2.1L3.8 53a6.5 6.5 0 0 0 .1 2.4c.7 2.7 1.4 5.4 2 8.1H6A7.3 7.3 0 0 1 4.5 61c-.8-3-1.3-6-1.9-9.1s.6-7.8 2-11.5l1.7-1.3a33.9 33.9 0 0 1 5-3.7c1.7-.8 4.3-2.1 5.8-4.4s3.1-2.9 4.9-4 1.6.5 2.5.7-.8 1.6-1.4 2-3.8 1.3-5.5 2.4a52.8 52.8 0 0 0-4.4 3.6l5.4 2.1c3.8 1.7 4.6 5.2 5.5 8.7s-.7 8.9 0 13.3 1 6.6 1.4 9.8a26.6 26.6 0 0 1 .4 3.4c-2.5-1-4.8-1.4-5.4-4.1zm-1.4-39.8l.4 1.1 4.7-1.8-.4-.8zm44.3 54.1l3.3-2.4c.3-.9.2-3 2.7-2.2l1.7-2.3a9.5 9.5 0 0 1 2 2c2.1 3.1 1.9 6.7 1.7 10.2-.1.9-1.2 1.7-2.2 2.4.2-1.6.3-3.2.5-4.7h-.3l-2 6.8H70c-.1-1.4-.2-2.9-.2-4.3l-2.6 6.8-.8-.2c0-.3.1-.6.1-.9 1.2-2.6 1-5-1.3-6.5s-2.1-2.8-1.7-4.7zm5.1 7.8c0-2 .1-4.5-.1-7.1 0-.6-1-1.4-1.7-1.4a2.4 2.4 0 0 0-2.1.8 2.6 2.6 0 0 0-.3 2.4c1.3 1.9 2.9 3.7 4.2 5.3zm-1.4-11.5c.7.9.9 1.6 1.4 1.9s2.2 2.8 2.3 4.6v3.8c1.5-6.1.2-10.2-3.7-10.3zm4.8-1.6l2.3 10c.7-4.4-.4-8.6-2.3-10zm-43.7-2.2L30 75c.6 0 1.6-.1 1.8.2a52.9 52.9 0 0 1 2.5 5.4 2.2 2.2 0 0 1-.4 1.7c-2.3 2.1-2.2 4.9-2.2 7.7 0 .5-.5 1.1-.9 2.2-.8-3.5-1.4-6.3-2.1-8.9l-2.3 7h-.3l-.3-9.6zm2.4 11.1c.9-2.2 1.9-4.7 3-7.6-3.4 1.1-4.2 3.7-3 7.6zm1.1-10v-.6c-1 .1-2.3-.2-3 .3s-.6 1.7-1.1 3zm-6.9-58.4l.4 2.1-4 1.3-16.9 6.7c-1.6.7-1.9 2.3-1.7 3.9s.7 4.3 1.1 6.4l-.8.4a12 12 0 0 1-1.1-2.3c-.3-.8-.8-3-1.4-4.4s.3-4.8 2.1-6.6c3.4-3.4 8.1-4.2 12.6-5.5 2-.6 4.1-.9 6.2-1.4zM22.2 20h-.4c-5.4 1.6-11.1 2.7-16.3 5s-5.6 5.7-3.3 10.5a2.4 2.4 0 0 0 0-1.2c-1-4-.2-5.9 3.5-7.5zm10 5.4c3.7 3.4 8.4 4.8 13.3 7-4.8.2-11-1.4-19-8.9 1.1 4.6 4.1 7.8 6.2 11.5-1.1-1.1-2.7-2-3.3-3.3a77.5 77.5 0 0 1-3.9-8.9c-.1-.2.3-.6.4-.9l7.6 6.4.3-.3zm30.5-2.2a22.3 22.3 0 0 1-2.4-1.9c-3.2-3.4-3.9-8.1-5.4-12.3-.7-2.1-1.4-4.4-2-6.4-1.1 3.8-.2 12.8 1.9 17.9-1.1-.7-2.3 1.1-3.1-.6h2A35.7 35.7 0 0 1 52.5 0a8.8 8.8 0 0 1 1 1.8 74.3 74.3 0 0 0 6.4 17.6 30.8 30.8 0 0 0 2.8 3.8z"/><path d="M37.2 24.4l5.2 3.4-.4.7c-4-.9-7-3.5-9.6-6.4s-4.9-6.1-7.5-9.5c.5 3.8 2.5 6.5 4.5 9.2s1.9 2.4 2.8 3.6c-4.6-3.7-7.8-8.2-8-15.1l1.7 2c2.7 3.5 5.3 7.1 8.1 10.6a15.1 15.1 0 0 0 2.8 2.2zm34.6 24.1l.8.5a41.5 41.5 0 0 1 4.1 2.7 11.5 11.5 0 0 1 4.1 9.1l-2-2.2-2.6 2.2a15.1 15.1 0 0 0 .4-2.2 7.7 7.7 0 0 0-4.6-8.5c-.3-.1-.2-1-.2-1.6zM47.2 12.3l-2.1-3.6c-.3 2.8 2.1 10.1 4.5 14.1-4.9-2.4-8-6.5-10.1-11.5l6.2 7.9a5.5 5.5 0 0 0 1.8 1.6c-2.4-4.9-3.5-9.9-2.4-15.4z"/><path d="M39.5 11.3c0 .7-.3 1.4-.1 2a25.4 25.4 0 0 0 5.8 11c-4.6-1.6-6.9-5.5-9.3-9.3 2 1.2 3 3.3 4.8 4.9-1.4-4-3.1-7.8-2.3-12.2zM28.2 75.7l-2.4 5-1.5 7h-.4c-.4-2.5-.8-4.9-1-7.4a11.2 11.2 0 0 1 .4-3.2c.9-3.3 3-4.8 6.9-4.5zm-4.3 7.7c2-3.2.7-7.7 4.9-9.6-4.1-.3-5.9 3.5-4.9 9.6zM6.3 39.1l-1.7 1.3a6.1 6.1 0 0 1 4.4-6 14.1 14.1 0 0 0 4.2-2.2c.8-.6 2.1-1.3 1.1-3s3.3-5.4 5-4.9.8 1.4.6 1.6-2.6 2.6-3.6 4.1-5.2 4.5-8.4 5.8a4.9 4.9 0 0 0-2 1.8c-.2.2.3 1 .4 1.5zm13.2-13.8l-.6-.6-3.3 3a6 6 0 0 0 .3 1.8c1.5-1.7 2.6-2.9 3.6-4.2zM7.7 52.6l-.4-3.2 3 4.7 2.9-1.7.5.6-1 1.5c-.6-1-1.2-1-1.7.2a81.8 81.8 0 0 0-3.2 8.2c-.4.9-.5 2-1.1 3.2-.3-.9-.5-1.8-.7-2.6h-.1c1.2 1 1.1-.1 1.4-.8a18.3 18.3 0 0 0 .4-10.1zM34 12.2L31.8 9c.2 4.7 1.2 9.1 4.1 13 .5.8.9 1.7 1.3 2.5a15.7 15.7 0 0 1-5-8.7c-.6-3.6-1.1-6.4-1.7-9.7l1-.3zM14.6 35.9c3.1-.5 5.1-2.7 7.5-4.2a19.6 19.6 0 0 1 3.3-1.5 1.8 1.8 0 0 1 1.4.6c.2.3-.1 1-.5 1.3a1.9 1.9 0 0 1-1.5.8c-2.9-.2-4.9 1.8-7.5 2.6z"/><path d="M12.8 54.4c-.1 2.4 1.3 4.3 2.4 6.4a14.2 14.2 0 0 1 .7 2.2l-4-7.5c-.1-.2.5-.7.9-1.1zm77.4-9.9c-.8 2.1-1.6 4.4-2.6 6.5s-1.8 3.4-2.7 5.2a2.7 2.7 0 0 1 .2-1.3l5.1-10.4zm-5.9 12.7c-1.3 3.1-2.7 6.3-4 9.5 1.3-3.2 2.7-6.4 4-9.5zM51.7 20a9.6 9.6 0 0 1-1.8-2.2c-1-1.8-1.8-3.7-2.7-5.6.6 1 1.2 2.1 1.9 3.1s1.1.9 1.2 1.4zm28.6 46.6l-4.1 7.7z"/><path fill="#fff" d="M72.4 36.9c3.3.1 3 3.2 4.2 5.4 0-1.8 0-3.3 2-2.8s2.1 2.5 2 3.9a2.5 2.5 0 0 1-2.2 2.3c-2.5.3-4.1-1.5-4.5-4.1a31.1 31.1 0 0 0-1.5-4.7zm-3.8-.1c-2.5-1.3-4.9-2.4-7.2-3.8-.8-.4-1.8-1.4-1.8-2.1a2.5 2.5 0 0 1 2.7-1.9c1.5 0 3.7 1.3 4 2.8s2.1 2.9 2.5 4.6a.7.7 0 0 1-.2.4z"/><path d="M62.2 75.4l.8.2c.5 1.4.9 2.7 1.4 4.4-1.7 2.2-3.3 4.9-1.8 8.3a1.7 1.7 0 0 1-.3 1L59 93.4c.2-.6.3-1.1.5-1.6l2.1-5.7-.6-.5a61.9 61.9 0 0 0-8.6 1.5c-2.8.8-3 1.7-2.1 4.8.5 1.4.7 3 1.5 4.2s3.6 1.4 5.9-.4l-4.9 10.1-4.2-5.2-6.7-8c-.2-.2-.5-.1-.7-.2h.1l-2.6-3.1c-1.4-1.5-2.6-3.1-4-4.8 2.5-4.2 1.5-8.6 0-13a29.8 29.8 0 0 1-.5-17c1.2-4.9 2-9.9 3.1-14.9 2.9.7 3.3 1.5 2.8 4.1-.2.9.2 1.8.3 3.2l-3.1.3V51h1.9a2.1 2.1 0 0 0 1.1-.8c1-1.8 1.9-3.4 3.9-4.3a23.6 23.6 0 0 0 4.4-3.2c2.3-2.1 4.9-1.5 7.5-1l1.4.2v9.5l-10.2-3c-3-.8-4.7.9-4 3.9a.5.5 0 0 1 .2.4c-.1 2.4.4 4.4 3.2 5s4.4.8 6.5-.5 4.6-1.3 4.9-4.4v6.7c-2.9.4-6 1-9.2 1.3-1.3.1-2.6-.5-4.3-.8.1 2.4.1 4.9.3 7.3s1.7 3.7 4.4 3.1c4.2-1 6.9-2.5 9.3-5.5a14.2 14.2 0 0 0 .4 2 23.8 23.8 0 0 0 2.4 5.1c1 1.5 1.4 2.2.9 3.6l-.6-.9c-.6-2.2-1.9-2.9-4.1-2.5l-8.4.9c-2 .2-3.1 1-3 3.2a10.3 10.3 0 0 0 2.4 5.7 2.4 2.4 0 0 0 3.2.7c1.3-.5 3.7-1.9 5.7-2.5a6.7 6.7 0 0 0 4.7-4.8zm-22.2.4l-2.3-3.9c-.7 3.1-.2 4.5 1.8 6.1l.5.5 2.6 3.2-.2 2.7-3.9-2.9-.7.6 6.9 12.1h.8c-.3-5-.7-9.7-.9-14.4H44l-1.5 1.8c.6-3.5 1-7 1.5-10.5v-1.5a2.7 2.7 0 0 0-1.2.9c-1 1.7-1.9 3.4-2.8 5.2zm-.5-21.4l-3.6 1.2v.7l2.9 6h.5c.1-2.6.2-5.2.2-7.9zm-1.4 10l-.9-1.9c-.2-1.2-.8-1.9-2.6-1.4l5.5 9.9 1.6-8.3-.5-.3c-.6.5-1.1 1.1-1.7 1.5a3.9 3.9 0 0 1-1.4.5z"/><path fill="#fff" d="M45.8 60.6c3.3 1.6 6.6 1.1 9.8.1 1.7-.6 2.8.2 2.4 1.9a5.1 5.1 0 0 1-1.9 3.4 42.9 42.9 0 0 1-7.8 3.7c-.6.2-2.3-1.2-2.6-2.2s-1.4-4.4.1-6.9zm3.6-3c-4.2.3-6.1-3.8-5-7.2a1.7 1.7 0 0 1 2.3-1.4l6.6 2.2 1.4.5c.7.3 1.9.7 1.9 1s-.5 2.2-1.1 2.5a55.3 55.3 0 0 1-6.1 2.4z"/><path d="M33.7 46.1c-.6 2.7-1.4 5.4-1.9 8.2a25.3 25.3 0 0 0 0 4.8l-3 3.9h-.5c.9-4.1 1.7-8.1 2.6-12.2h-.3l-3.1 4.4-.7-.2 4.9-12-3.8 1.4-.3-.5 6.7-5.2c-.3 3.1-.5 5.2-.6 7.4zm23.9 49.6c-2.2 1.8-4.7 2.1-5.9.4s-1-2.8-1.5-4.2c.6 1 1 2.1 1.6 3.1s2.9 2.3 4.2.6 3.4-5.7 5.1-8.5l-.5-.5c-2.3.3-4.6.9-6.9 1s-3.6 1.8-3.4 4.3c-.9-3.1-.7-4 2.1-4.8a61.9 61.9 0 0 1 8.6-1.5l.6.5-2.1 5.7c-.2.5-.3 1-.5 1.6a15.8 15.8 0 0 1-1.4 2.3z"/><path fill="#fff" d="M63.7 37l3.4 4.4c-3.4.2-2.1-3.2-4-3.9zm-22.6 9c-.1-1.8-.3-3.7-.5-5.6l1.8.8c-.4 1.7-.9 3.3-1.3 4.8zm-22.6-2.8c-.1 2.6-3.4 6.1-5.5 6-.4 0-1.1-1-1-1.4.4-2.2 4-4.6 6.5-4.6zM7.7 52.6a18.3 18.3 0 0 1-.4 10.1c-.3.8-.2 1.9-1.4.8-.6-2.7-1.3-5.4-2-8.1a6.5 6.5 0 0 1-.1-2.4l1.3 1.7c1.5 0 .1-3.4 2.6-2.1z"/><path fill="#231f20" d="M19.1 29.1l4.7-1.5.4.8-4.7 1.8z"/><path fill="#fff" d="M68.5 91c-1.3-1.6-2.9-3.4-4.2-5.3a2.6 2.6 0 0 1 .3-2.4 2.4 2.4 0 0 1 2.1-.8c.7 0 1.7.8 1.7 1.4.2 2.6.1 5.1.1 7.1zm-1.4-11.5c3.9.1 5.2 4.2 3.7 10.3V86c-.1-1.8-.4-3.6-2.3-4.6s-.7-1-1.4-1.9zm4.8-1.6c1.9 1.4 3 5.6 2.3 10zm-41.3 8.9c-1.2-3.9-.4-6.5 3-7.6-1.1 2.9-2.1 5.4-3 7.6zm1.1-10l-4 2.7c.4-1.3.5-2.6 1.1-3s1.9-.2 2.9-.3z"/><path stroke="#000" stroke-miterlimit="10" stroke-width=".25" d="M22.2 20L5.7 26.8c-3.7 1.6-4.5 3.5-3.5 7.5a2.4 2.4 0 0 1 0 1.2C-.1 30.7 1 26.8 5.5 24.9s10.9-3.4 16.3-5z"/><path fill="#fff" d="M23.9 83.4c-1-6.1.8-9.9 4.9-9.6-4.2 1.9-2.9 6.4-4.9 9.6z"/><path fill="#231f20" d="M19.5 25.3c-1 1.3-2.1 2.5-3.6 4.2a6 6 0 0 1-.3-1.8l3.3-3z"/><path d="M62.2 75.4a6.7 6.7 0 0 1-4.7 4.8 41.1 41.1 0 0 0-5.7 2.5c-1.9.9-2.3.4-3.2-.7a10.3 10.3 0 0 1-2.4-5.8c-.1-2.2 1-3 3-3.2s5.6-.5 8.4-.9 3.5.3 4.1 2.5l.6.9zm-1.4.1c0-2.4-.8-3-3-2.6a67.6 67.6 0 0 1-7.7 1c-2.9.1-4 1.7-2.7 4.4.3.8.8 1.5 1.1 2.2s2.1 2 3.7 1.3l6.4-2.9c2.1-.9 2.4-1.8 2.2-3.4z"/><path fill="#fff" d="M42.5 81.8l1.5-1.9h.6c.2 4.7.6 9.5.9 14.4-.2 0-.7.1-.8-.1l-6.9-12.1.7-.6 3.9 2.9c.1-1 .1-1.9.2-2.7zm1.7 9.9v-10h-.5l-.9 4.3-.6.5-3.1-4.1-.3.3zM40 78.5l-.5-.5c-.6-1.3-1.1-2.5-1.6-3.8l.5-.2 1.6 1.8h-.1c.5-.1 1.2-.1 1.3-.4s1-2.4 1.7-3.5.7-.4 1.1-.5a7.8 7.8 0 0 0-.5 1.8c-.4 2.5-.9 5-1.3 7.3zm-1.9-14.1a3.9 3.9 0 0 0 1.4-.5c.6-.4 1.1-1 1.7-1.5l.5.3-1.6 8.3-5.5-9.9c1.8-.5 2.4.2 2.6 1.4l-.8.8c1 1.9 2.1 3.7 3.3 6l1.3-5.5-.7-.2c-.4 1-.6 2-1 3.2zm-2.2-8.1v-.7l3.6-1.2c-.2 1.9-.4 3.8-.7 5.8z"/><path fill="#fff" d="M38.1 64.4l1.2 2.4c.4-1.2.6-2.2 1-3.2l.7.2-1.3 5.5c-1.2-2.3-2.3-4.1-3.3-6l.8-.8z"/><path d="M40 78.5l2.2 1.8c.5-2.3.9-4.8 1.4-7.3a8 8 0 0 1 .4-1.8c-.5 3.5-.9 7-1.5 10.6z"/><path fill="#fff" d="M35.9 56.3l2.9 3.9c.3-2 .5-3.9.7-5.8 0 2.7-.1 5.3-.2 8h-.5zm8.1 15c-.4.1-1 .2-1.1.5s-1 2.4-1.7 3.5-.8.3-1.3.4c.9-1.8 1.7-3.5 2.7-5.2a3.4 3.4 0 0 1 1.2-.9z"/><path d="M40 75.8L38.4 74l-.5.2c.5 1.3 1 2.5 1.6 3.8-2-1.6-2.5-3-1.8-6.1z"/><path fill="#fff" d="M50.3 91.9c-.2-2.5.6-4.1 3.4-4.3a60 60 0 0 0 6.9-1l.5.5c-1.7 2.8-3.2 5.9-5.1 8.5s-3 1.3-4.2-.6-1-2.1-1.6-3.1zm10.5-16.4c.2 1.6-.5 2.7-2.2 3.4s-4.3 2-6.4 2.9-3 .7-3.7-1.3-.8-1.4-1.1-2.2c-1.3-2.7-.2-4.3 2.7-4.4a67.6 67.6 0 0 0 7.7-1c2.2-.4 3 .2 3 2.6zM44.2 91.7l-5.4-9 .3-.3 3.1 4.1.6-.6.9-4.3h.5z"/></svg>