<svg xmlns="http://www.w3.org/2000/svg" width="1.4in" height="1.1in" viewBox="0 0 100.1 82.1"><path fill="#fff" d="M68.5 0a21.7 21.7 0 0 0-21.7 21.7 14.9 14.9 0 0 0 .2 2.1A53.4 53.4 0 0 1 10.3 4.4a2.3 2.3 0 0 0-1.8-.8 2 2 0 0 0-1.5 1 21 21 0 0 0 1.4 23.7 10.4 10.4 0 0 1-1.6-.6 2.1 2.1 0 0 0-1.9 0 2.1 2.1 0 0 0-1 1.7v.3a21.6 21.6 0 0 0 9.4 17.7h-.2a2.1 2.1 0 0 0-1.8.6 1.9 1.9 0 0 0-.4 1.9 21.4 21.4 0 0 0 15 14.2 36.9 36.9 0 0 1-19.2 5.3 31.7 31.7 0 0 1-4.4-.2 2 2 0 0 0-2.2 1.3 2 2 0 0 0 .9 2.4 57.4 57.4 0 0 0 31.2 9.2c18.7 0 33.3-7.8 43.1-19a60.3 60.3 0 0 0 15-39.1c0-.6-.1-1.1-.1-1.7a42.5 42.5 0 0 0 9.5-9.9 1.9 1.9 0 0 0-.1-2.4 2.2 2.2 0 0 0-2.4-.6 31.8 31.8 0 0 1-3.3.9 23.3 23.3 0 0 0 3.4-6.2 2.2 2.2 0 0 0-.7-2.2 2 2 0 0 0-2.3-.1 38.9 38.9 0 0 1-11.2 4.3A20.9 20.9 0 0 0 68.5 0zm0 4a17.7 17.7 0 0 1 12.9 5.6 2.2 2.2 0 0 0 1.9.6 38.3 38.3 0 0 0 7.5-2.3 16.7 16.7 0 0 1-5.2 4.7 2.1 2.1 0 0 0-1 2.5 2.2 2.2 0 0 0 2.4 1.3 51.5 51.5 0 0 0 5.6-1.6 33.4 33.4 0 0 1-5.6 5 2.3 2.3 0 0 0-.8 1.8c0 .8.1 1.6.1 2.4a55.8 55.8 0 0 1-14 36.4c-9.1 10.4-22.5 17.7-40.1 17.7a53.5 53.5 0 0 1-22.3-4.9 41.5 41.5 0 0 0 22.5-8.6 2 2 0 0 0 .6-2.2 1.8 1.8 0 0 0-1.8-1.3 17.9 17.9 0 0 1-15.1-9.4h.4a21.8 21.8 0 0 0 5.7-.8 1.8 1.8 0 0 0 1.4-1.9 1.8 1.8 0 0 0-1.5-1.9A17.7 17.7 0 0 1 8.4 32.6a19.1 19.1 0 0 0 6.3 1.3 2 2 0 0 0 2-1.3 2 2 0 0 0-.8-2.4A17.4 17.4 0 0 1 8 15.5a17.1 17.1 0 0 1 1.4-6.4 57.7 57.7 0 0 0 39.8 19.1 2 2 0 0 0 1.6-.7 1.8 1.8 0 0 0 .5-1.7 18.4 18.4 0 0 1-.5-4.1A17.7 17.7 0 0 1 68.5 4z"/></svg>