<svg xmlns="http://www.w3.org/2000/svg" width="1.2in" height="86.4" viewBox="0 0 86.2 64"><path fill="#fff" d="M42.8 0C29.6 0 17.2 1 10.6 2.4c-4.4 1-8.2 4-9 8.6A129.8 129.8 0 0 0 0 32a108.8 108.8 0 0 0 1.8 21c.8 4.4 4.6 7.6 9 8.6 7 1.4 19 2.4 32.2 2.4s25.2-1 32.2-2.4c4.4-1 8.2-4 9-8.6a152.6 152.6 0 0 0 2-21.2 108.4 108.4 0 0 0-2-21.2c-.8-4.4-4.6-7.6-9-8.6a249.7 249.7 0 0 0-32.4-2zm0 4a199.4 199.4 0 0 1 31.6 2.2c3 .8 5.4 2.8 5.8 5.4a109.8 109.8 0 0 1 2 20.2 148.8 148.8 0 0 1-2 20.6c-.6 3.8-4.6 5-5.8 5.4-7.2 1.4-19.2 2.4-31.2 2.4S19 59.4 12 57.8C9 57 6.6 55 6.2 52.4 4.6 46.8 4 39.4 4 32a111.2 111.2 0 0 1 1.6-20.2c.6-3.8 4.8-5 5.8-5.4C18 5 30.2 4 42.8 4zM32 16v32l28-16zm4 6.8L52 32l-16 9.2z"/></svg>